<svg xmlns="http://www.w3.org/2000/svg" width="24" height="24" fill="rgb(122,142,179)" viewBox="0 0 24 24">
  <path d="M12 2C6.477 2 2 6.478 2 12s4.477 10 10 10 10-4.478 10-10S17.523 2 12 2zm0 18
           c-4.411 0-8-3.589-8-8s3.589-8 8-8 8 3.589 8 8-3.589 8-8 8zm.002-13
           c-2.757 0-5 2.243-5 5s2.243 5 5 5c1.385 0 2.64-.564 3.535-1.465l-1.414-1.414
           A2.993 2.993 0 0 1 12.002 15c-1.654 0-3-1.346-3-3s1.346-3 3-3
           c.827 0 1.578.335 2.121.879l1.414-1.414
           A4.977 4.977 0 0 0 12.002 7z"/>
</svg>
