<svg role="img" viewBox="0 0 30 30" xmlns="http://www.w3.org/2000/svg" width="100" height="100">
  <title>GitHub</title>
  <path d="M12 .297a12 12 0 0 0-3.79 23.412c.6.111.82-.26.82-.577v-2.17c-3.338.726-4.042-1.61-4.042-1.61a3.184 3.184 0 0 0-1.335-1.756c-1.09-.745.083-.73.083-.73a2.532 2.532 0 0 1 1.85 1.24 2.567 2.567 0 0 0 3.507 1.001 2.568 2.568 0 0 1 .765-1.615c-2.665-.3-5.466-1.334-5.466-5.932a4.64 4.64 0 0 1 1.233-3.22 4.307 4.307 0 0 1 .118-3.175s1.006-.322 3.3 1.23a11.38 11.38 0 0 1 6.004 0c2.29-1.553 3.295-1.23 3.295-1.23a4.31 4.31 0 0 1 .12 3.175 4.637 4.637 0 0 1 1.233 3.22c0 4.61-2.805 5.628-5.475 5.921a2.875 2.875 0 0 1 .82 2.22v3.293c0 .32.22.694.825.576A12.001 12.001 0 0 0 12 .297" fill="#7a8eb3"/>
</svg>

